HIERARCHY
ROOT joint_Root
{
	OFFSET 0.0 0.0 0.0
	CHANNELS 6 Xposition Yposition Zposition Zrotation Xrotation Yrotation 
	JOINT Hips
	{
		OFFSET 4.5925 91.4895 -427.239
		CHANNELS 6 Xposition Yposition Zposition Zrotation Xrotation Yrotation 
		JOINT Spine
		{
			OFFSET 15.7357 0.0 0.0
			CHANNELS 6 Xposition Yposition Zposition Zrotation Xrotation Yrotation 
			JOINT Chest
			{
				OFFSET 8.98455 -0.406207 0.0
				CHANNELS 6 Xposition Yposition Zposition Zrotation Xrotation Yrotation 
				JOINT Neck
				{
					OFFSET 16.3773 0.0 0.0
					CHANNELS 6 Xposition Yposition Zposition Zrotation Xrotation Yrotation 
					JOINT Head
					{
						OFFSET 6.45672 0.0 0.0
						CHANNELS 6 Xposition Yposition Zposition Zrotation Xrotation Yrotation 
						End Site
						{
							OFFSET 0.0 0.0 0.0
						}
					}
				}
				JOINT Shoulder_L
				{
					OFFSET 12.9942 -0.242716 4.98039
					CHANNELS 6 Xposition Yposition Zposition Zrotation Xrotation Yrotation 
					JOINT UpperArm_L
					{
						OFFSET 5.34809 0.0 0.0
						CHANNELS 6 Xposition Yposition Zposition Zrotation Xrotation Yrotation 
						JOINT LowerArm_L
						{
							OFFSET 24.3286 1.87007e-05 0.0
							CHANNELS 6 Xposition Yposition Zposition Zrotation Xrotation Yrotation 
							JOINT Hand_L
							{
								OFFSET 22.2916 0.0 0.0
								CHANNELS 6 Xposition Yposition Zposition Zrotation Xrotation Yrotation 
								End Site
								{
									OFFSET 0.0 0.0 0.0
								}
							}
						}
					}
				}
				JOINT Shoulder_R
				{
					OFFSET 12.9945 -0.242716 -4.98039
					CHANNELS 6 Xposition Yposition Zposition Zrotation Xrotation Yrotation 
					JOINT UpperArm_R
					{
						OFFSET -5.34813 0.0 0.0
						CHANNELS 6 Xposition Yposition Zposition Zrotation Xrotation Yrotation 
						JOINT LowerArm_R
						{
							OFFSET -24.3289 0.000322201 0.0
							CHANNELS 6 Xposition Yposition Zposition Zrotation Xrotation Yrotation 
							JOINT Hand_R
							{
								OFFSET -22.2915 -0.000108084 0.0
								CHANNELS 6 Xposition Yposition Zposition Zrotation Xrotation Yrotation 
								End Site
								{
									OFFSET 0.0 0.0 0.0
								}
							}
						}
					}
				}
			}
		}
		JOINT UpperLeg_L
		{
			OFFSET -2.19248 -6.46944 0.0
			CHANNELS 6 Xposition Yposition Zposition Zrotation Xrotation Yrotation 
			JOINT LowerLeg_L
			{
				OFFSET 39.0811 0.0 -1.23785e-05
				CHANNELS 6 Xposition Yposition Zposition Zrotation Xrotation Yrotation 
				JOINT Foot_L
				{
					OFFSET 40.9854 0.0 -1.26872e-05
					CHANNELS 6 Xposition Yposition Zposition Zrotation Xrotation Yrotation 
					JOINT Toes_L
					{
						OFFSET 11.7543 0.0 0.0
						CHANNELS 6 Xposition Yposition Zposition Zrotation Xrotation Yrotation 
						End Site
						{
							OFFSET 0.0 0.0 0.0
						}
					}
				}
			}
		}
		JOINT UpperLeg_R
		{
			OFFSET -2.19251 6.46944 0.0
			CHANNELS 6 Xposition Yposition Zposition Zrotation Xrotation Yrotation 
			JOINT LowerLeg_R
			{
				OFFSET -39.0811 -0.00228153 -0.0401928
				CHANNELS 6 Xposition Yposition Zposition Zrotation Xrotation Yrotation 
				JOINT Foot_R
				{
					OFFSET -40.9854 0.0 0.0
					CHANNELS 6 Xposition Yposition Zposition Zrotation Xrotation Yrotation 
					JOINT Toes_R
					{
						OFFSET -11.7543 0.0 0.0
						CHANNELS 6 Xposition Yposition Zposition Zrotation Xrotation Yrotation 
						End Site
						{
							OFFSET 0.0 0.0 0.0
						}
					}
				}
			}
		}
	}
}
MOTION
Frames:	4
Frame Time:	0.0333333
0.000000 0.000000 0.000000 0.000000 0.000000 -0.000000 -1.693140 90.127000 -68.950800 84.903600 -12.668400 -5.199090 15.735700 0.000005 -0.000001 123.172000 80.973700 -123.024000 8.984550 -0.406207 -0.000000 7.414520 9.840170 -0.342314 16.377300 -0.000001 -0.000001 -0.284000 -0.968268 2.693330 6.456720 -0.000001 -0.000000 -6.642690 -5.271080 0.688146 12.994200 -0.242716 4.980390 -90.500600 1.064340 -64.760700 5.348090 -0.000007 -0.000001 -64.862000 5.596430 22.486100 24.328600 0.000019 0.000005 10.335700 11.567700 -42.292000 22.291600 -0.000001 0.000005 3.226870 5.459010 -4.958750 12.994500 -0.242716 -4.980390 89.371700 4.641280 -82.282300 -5.348130 -0.000001 -0.000004 -54.404100 24.178100 -31.304800 -24.328900 0.000322 -0.000009 -5.876610 -3.639070 -58.343200 -22.291500 -0.000108 -0.000004 8.280280 5.514190 -7.115380 -2.192480 -6.469440 -0.000000 175.888000 -18.421300 -33.823500 39.081100 -0.000007 -0.000012 0.367301 -0.730749 26.686600 40.985400 -0.000006 -0.000013 6.089160 -2.414010 -74.655400 11.754300 -0.000000 0.000003 -0.006950 -0.079240 -19.802600 -2.192510 6.469440 -0.000001 173.014000 2.380290 -174.039000 -39.081100 -0.002282 -0.040193 0.536177 -0.116670 77.658400 -40.985400 0.000008 0.000006 0.984182 -1.686610 -22.626000 -11.754300 -0.000006 -0.000006 -0.013728 -0.129653 -21.861000
0.000000 0.000000 0.000000 0.000000 0.000000 -0.000000 -1.371450 87.160200 -58.864500 89.057500 -7.853100 -5.901180 15.735700 0.000005 -0.000001 111.554000 81.676100 -112.816000 8.984550 -0.406207 -0.000000 7.819610 6.090490 -2.941060 16.377300 -0.000001 -0.000001 -1.225460 -2.016290 2.943430 6.456720 -0.000001 -0.000000 -8.120960 -5.185050 1.707610 12.994200 -0.242716 4.980390 -91.978400 4.630660 -66.822600 5.348090 -0.000007 -0.000001 -63.408900 6.523780 11.877000 24.328600 0.000019 0.000005 8.688220 8.281040 -46.709600 22.291600 -0.000001 0.000005 6.507940 5.470360 -5.373890 12.994500 -0.242716 -4.980390 88.923800 7.847650 -82.167000 -5.348130 -0.000001 -0.000004 -54.257400 25.684600 -23.710700 -24.328900 0.000322 -0.000009 -7.182880 -6.333320 -48.837400 -22.291500 -0.000108 -0.000004 6.297860 5.511300 -6.989640 -2.192480 -6.469440 -0.000000 171.481000 -14.142300 -39.353200 39.081100 -0.000007 -0.000012 0.354722 -0.410439 40.835600 40.985400 -0.000006 -0.000013 8.339810 -1.312220 -59.928600 11.754300 -0.000000 0.000003 -0.005146 -0.062882 -19.135400 -2.192510 6.469440 -0.000001 171.077000 5.567460 173.229000 -39.081100 -0.002282 -0.040193 0.643085 0.131854 101.653000 -40.985400 0.000008 0.000006 0.632716 -0.545832 -19.310700 -11.754300 -0.000006 -0.000006 -0.013926 -0.130946 -21.914100
0.000000 0.000000 0.000000 0.000000 0.000000 -0.000000 -1.136330 83.803500 -48.195300 91.279400 -3.666510 -5.198610 15.735700 0.000005 -0.000001 101.307000 81.411600 -103.169000 8.984550 -0.406207 -0.000000 9.145850 3.327190 -3.989250 16.377300 -0.000001 -0.000001 -2.781730 -3.064390 2.498720 6.456720 -0.000001 -0.000000 -8.270300 -5.728520 2.963330 12.994200 -0.242716 4.980390 -92.612000 6.836220 -69.028200 5.348090 -0.000007 -0.000001 -61.100400 8.481830 -2.611290 24.328600 0.000019 0.000005 6.427000 5.020590 -52.156200 22.291600 -0.000001 0.000005 9.037200 5.472390 -5.461790 12.994500 -0.242716 -4.980390 88.579200 10.029000 -81.894600 -5.348130 -0.000001 -0.000004 -54.312500 28.259400 -15.063800 -24.328900 0.000322 -0.000009 -8.137820 -10.412500 -38.335500 -22.291500 -0.000108 -0.000004 5.788690 5.501980 -6.613070 -2.192480 -6.469440 -0.000000 171.445000 -5.121580 -38.220800 39.081100 -0.000007 -0.000012 -0.504055 0.337698 56.180600 40.985400 -0.000006 -0.000013 5.417970 -7.104870 -74.139300 11.754300 -0.000000 0.000003 -0.000014 -0.000187 -16.584900 -2.192510 6.469440 -0.000001 171.747000 7.335240 159.531000 -39.081100 -0.002282 -0.040193 0.384050 0.241019 122.346000 -40.985400 0.000008 0.000006 1.717290 -0.181405 -17.477900 -11.754300 -0.000006 -0.000006 -0.014239 -0.132971 -21.997200
0.000000 0.000000 0.000000 0.000000 0.000000 -0.000000 -0.895886 81.772800 -37.664800 93.127600 0.618893 -5.391600 15.735700 0.000005 -0.000001 91.295600 81.262400 -93.483300 8.984550 -0.406207 -0.000000 9.715480 0.355515 -4.402360 16.377300 -0.000001 -0.000001 -3.330510 -4.351240 2.177140 6.456720 -0.000001 -0.000000 -8.169060 -5.709330 3.888990 12.994200 -0.242716 4.980390 -91.944700 6.061840 -72.183400 5.348090 -0.000007 -0.000001 -61.263000 7.435810 -16.715300 24.328600 0.000019 0.000005 9.637030 5.179140 -61.989000 22.291600 -0.000001 0.000005 8.801520 5.471720 -5.434880 12.994500 -0.242716 -4.980390 88.425400 9.748300 -80.778200 -5.348130 -0.000001 -0.000004 -58.171700 29.587400 -5.046090 -24.328900 0.000322 -0.000009 -1.602720 -2.779750 -29.809400 -22.291500 -0.000108 -0.000004 4.301220 5.489060 -6.102100 -2.192480 -6.469440 -0.000000 169.880000 -4.608700 -31.998800 39.081100 -0.000007 -0.000012 -0.900856 0.496350 61.148800 40.985400 -0.000006 -0.000013 6.132630 -5.060630 -85.145300 11.754300 -0.000000 0.000003 -0.000028 -0.000337 -16.590700 -2.192510 6.469440 -0.000001 173.150000 9.564870 141.297000 -39.081100 -0.002282 -0.040193 -0.035693 -0.040547 136.033000 -40.985400 0.000008 0.000006 4.988510 -1.533680 -15.628400 -11.754300 -0.000006 -0.000006 -0.014684 -0.135819 -22.114000
